<svg id="logos" xmlns="http://www.w3.org/2000/svg" viewBox="0 0 362.62 400"><defs><style>.cls-1{fill:#0053b7;}.cls-2{fill:#028dd3;}.cls-3{fill:#70defc;}</style></defs><path class="cls-1" d="M237,381.61c-89.12,0-161.36-32.24-161.36-72,0-27.11,33.6-50.73,83.23-63C68.78,252.6,0,284.42,0,322.78,0,365.43,85,400,189.84,400c76.75,0,142.86-18.53,172.78-45.18C333,371.15,287.78,381.61,237,381.61Z"/><circle class="cls-2" cx="216.45" cy="33.69" r="33.69"/><path class="cls-3" d="M306.67,304c-.2-18.23-56.7-23.77-65.55-136.58-4.4-56.1-6.63-64.34-7.35-65.38h0c-2.69-5.38-9.33-9.2-17.13-9.2s-14.43,3.82-17.13,9.2h0c-.73,1-2.95,9.28-7.35,65.38C183.28,280.19,126.61,285.73,126.42,304h0c1.05,19.89,41,35.89,90.16,35.89s89-16,90.05-35.89Z"/><path class="cls-2" d="M284,278.29C192.59,250.55,197.8,109.6,197.8,109.6c-1.63,9.27-4.37,39.68-5.79,57.78C183.16,280.19,126.5,285.73,126.3,304h0c1,19.89,41,35.89,90.16,35.89s89.12-16,90.17-35.89h0c-.06-5.2-4.38-9.24-11.2-15.16"/><path class="cls-1" d="M301.09,315.92c-116.47,7.66-106.8-174.71-106.8-175.1-.67,7.42-1.51,16.15-2.34,26.66-8.85,112.8-65.51,118.34-65.71,136.58h0c1,19.89,41,35.89,90.16,35.89,38.88,0,72-10,84.67-24"/></svg>